<?xml version="1.0" encoding="UTF-8"?>
<svg id="Layer_1" xmlns="http://www.w3.org/2000/svg" xmlns:xlink="http://www.w3.org/1999/xlink" version="1.1" viewBox="0 0 52 100">
  <!-- Generator: Adobe Illustrator 29.8.1, SVG Export Plug-In . SVG Version: 2.1.1 Build 2)  -->
  <defs>
    <style>
      .st0 {
        fill: url(#linear-gradient2);
      }

      .st1 {
        fill: url(#linear-gradient1);
      }

      .st2 {
        fill: #da2327;
      }

      .st3 {
        fill: url(#linear-gradient);
      }

      .st4 {
        fill: #fff;
      }

      .st5 {
        opacity: .6;
      }

      .st6 {
        opacity: .2;
      }
    </style>
    <linearGradient id="linear-gradient" x1="26.01" y1="55.78" x2="26.01" y2="2.02" gradientUnits="userSpaceOnUse">
      <stop offset="0" stop-color="#ffc10e"/>
      <stop offset=".04" stop-color="#febe0f" stop-opacity=".97"/>
      <stop offset=".11" stop-color="#fcb613" stop-opacity=".88"/>
      <stop offset=".2" stop-color="#faa91a" stop-opacity=".74"/>
      <stop offset=".29" stop-color="#f69823" stop-opacity=".54"/>
      <stop offset=".4" stop-color="#f2822e" stop-opacity=".29"/>
      <stop offset=".51" stop-color="#ed693c" stop-opacity="0"/>
    </linearGradient>
    <linearGradient id="linear-gradient1" x1="26.35" y1="78.69" x2="26.35" y2="38.13" xlink:href="#linear-gradient"/>
    <linearGradient id="linear-gradient2" x1="25.89" y1="97.98" x2="25.89" y2="73.83" xlink:href="#linear-gradient"/>
  </defs>
  <g>
    <path class="st2" d="M50.07,9.19c-.27-4.22-1.59-6.88-1.65-6.99-.05-.11-.16-.18-.29-.18,0,0,0,0-.01,0-.12,0-.23.06-.29.16-.03.04-2.68,4.38-9.55,8.74-5,3.17-6.97,4.08-15.25,7.91-.91.42-1.9.88-2.97,1.38-5.59,2.59-11.78,5.97-15.24,11.39-3.48,5.44-3.84,12.37-1.09,21.18.94,3.01,1.18,3.01,1.46,3.01.22,0,.38-.18.4-.43,0-.05,0-.1-.02-.15-.04-.56-.2-7.49,13.99-13.84,18.09-8.1,22.27-11.08,25.65-15.91,4.47-6.4,5.11-12.37,4.86-16.25Z"/>
    <path class="st2" d="M35.8,43.4c-3.78,2.47-14.58,8.87-19.73,12.07-5.15,3.19-6.74,11.56-5.52,17.32.94,4.45,1.82,5.89,1.82,5.89.2.21,1.78-3.37,9.9-8.53,9.19-5.83,11.42-5.5,15.35-10.78,6.35-8.54,5.19-16.81,3.92-21.24-1.37,1.72-1.96,2.79-5.74,5.26Z"/>
    <path class="st2" d="M34.5,73.93c-.06-.06-.15-.09-.23-.09h0c-.22,0-.44.15-3.45,2.32-1.7,1.23-4.03,2.91-6.45,4.59-4.87,3.36-6.53,5.42-7.09,8.82-.51,3.07,1.27,7.99,1.35,8.2.04.1.12.18.22.21.03,0,.06.01.1.01.07,0,.14-.02.2-.06.02-.02,2.5-1.83,7.77-5.63,3.18-2.3,5.43-5.81,6.69-10.44.98-3.62,1.02-6.79,1.01-7.68,0-.09-.04-.17-.1-.24Z"/>
  </g>
  <g>
    <path class="st3" d="M50.07,9.19c-.27-4.22-1.59-6.88-1.65-6.99-.05-.11-.16-.18-.29-.18,0,0,0,0-.01,0-.12,0-.23.06-.29.16-.03.04-2.68,4.38-9.55,8.74-5,3.17-6.97,4.08-15.25,7.91-.91.42-1.9.88-2.97,1.38-5.59,2.59-11.78,5.97-15.24,11.39-3.48,5.44-3.84,12.37-1.09,21.18.94,3.01,1.18,3.01,1.46,3.01.22,0,.38-.18.4-.43,0-.05,0-.1-.02-.15-.04-.56-.2-7.49,13.99-13.84,18.09-8.1,22.27-11.08,25.65-15.91,4.47-6.4,5.11-12.37,4.86-16.25Z"/>
    <path class="st1" d="M35.8,43.4c-3.78,2.47-14.58,8.87-19.73,12.07-5.15,3.19-6.74,11.56-5.52,17.32.94,4.45,1.82,5.89,1.82,5.89.2.21,1.78-3.37,9.9-8.53,9.19-5.83,11.42-5.5,15.35-10.78,6.35-8.54,5.19-16.81,3.92-21.24-1.37,1.72-1.96,2.79-5.74,5.26Z"/>
    <path class="st0" d="M34.5,73.93c-.06-.06-.15-.09-.23-.09h0c-.22,0-.44.15-3.45,2.32-1.7,1.23-4.03,2.91-6.45,4.59-4.87,3.36-6.53,5.42-7.09,8.82-.51,3.07,1.27,7.99,1.35,8.2.04.1.12.18.22.21.03,0,.06.01.1.01.07,0,.14-.02.2-.06.02-.02,2.5-1.83,7.77-5.63,3.18-2.3,5.43-5.81,6.69-10.44.98-3.62,1.02-6.79,1.01-7.68,0-.09-.04-.17-.1-.24Z"/>
  </g>
  <g class="st6">
    <path class="st4" d="M41.37,38.34c-1.26,1.6-1.96,2.69-5.57,5.05-3.78,2.47-14.58,8.87-19.73,12.07-5.09,3.16-6.7,11.36-5.56,17.12.96-1.22,3.42-4.29,9.78-8.32,3.19-2.02,5.57-3.33,7.48-4.38,3.87-2.13,5.81-3.2,8.56-6.9,4.62-6.22,5.52-10.57,5.04-14.64Z"/>
    <path class="st4" d="M24.36,80.74c-4.87,3.36-6.53,5.42-7.09,8.82-.2,1.23-.04,2.77.24,4.17,1-.73,3.8-2.77,8.6-6.23,3.69-2.67,6.31-6.74,7.76-12.12.14-.52.27-1.04.38-1.55-.21,0-.48.18-3.44,2.32-1.7,1.23-4.03,2.91-6.45,4.59Z"/>
    <path class="st4" d="M16.56,33.56c18.85-8.44,23.21-11.55,26.74-16.59,3.91-5.59,5.01-10.87,5.11-14.81-.06-.09-.15-.14-.26-.15,0,0,0,0-.01,0-.12,0-.23.06-.29.16-.03.04-2.68,4.38-9.55,8.74-5,3.17-6.97,4.08-15.25,7.91-.91.42-1.9.88-2.97,1.38-5.59,2.59-11.78,5.97-15.24,11.39-2.56,4.01-3.43,8.83-2.61,14.61.73-2.66,3.56-7.81,14.34-12.63Z"/>
  </g>
  <g class="st5">
    <path class="st4" d="M16.07,56.13c5.15-3.19,15.95-9.6,19.73-12.07,3.62-2.37,4.32-3.46,5.57-5.05.06.51.1,1.03.11,1.55.02-.75-.03-1.49-.11-2.22-1.26,1.6-1.96,2.69-5.57,5.05-3.78,2.47-14.58,8.87-19.73,12.07-4.15,2.57-5.98,8.49-5.9,13.71.08-5.05,1.93-10.58,5.9-13.04Z"/>
    <path class="st4" d="M17.27,90.23c.56-3.4,2.22-5.46,7.09-8.82,2.42-1.67,4.75-3.36,6.45-4.59,2.34-1.69,2.99-2.15,3.27-2.27.06-.24.11-.48.16-.71-.21,0-.48.18-3.44,2.32-1.7,1.23-4.03,2.91-6.45,4.59-4.87,3.36-6.53,5.42-7.09,8.82-.08.49-.1,1.02-.08,1.57.01-.31.04-.61.08-.9Z"/>
    <path class="st4" d="M4.82,32.25c3.46-5.42,9.65-8.8,15.24-11.39,1.08-.5,2.06-.95,2.97-1.38,8.28-3.83,10.25-4.74,15.25-7.91,6.87-4.36,9.52-8.69,9.55-8.74.06-.1.17-.16.29-.16,0,0,0,0,.01,0,.09,0,.18.05.24.12.01-.22.02-.43.03-.64-.06-.09-.15-.14-.26-.15,0,0,0,0-.01,0-.12,0-.23.06-.29.16-.03.04-2.68,4.38-9.55,8.74-5,3.17-6.97,4.08-15.25,7.91-.91.42-1.9.88-2.97,1.38-5.59,2.59-11.78,5.97-15.24,11.39-1.99,3.11-2.95,6.71-2.9,10.86.06-3.87,1.02-7.25,2.9-10.19Z"/>
  </g>
</svg>