<?xml version="1.0" encoding="UTF-8"?>
<svg id="Layer_1" xmlns="http://www.w3.org/2000/svg" xmlns:xlink="http://www.w3.org/1999/xlink" version="1.1" viewBox="0 0 177.39 40">
  <!-- Generator: Adobe Illustrator 29.8.1, SVG Export Plug-In . SVG Version: 2.1.1 Build 2)  -->
  <defs>
    <style>
      .st0 {
        fill: none;
      }

      .st1 {
        fill: #faa91a;
      }

      .st2 {
        fill: #fcb116;
      }

      .st3 {
        fill: #feba12;
      }

      .st4 {
        fill: #febd10;
      }

      .st5 {
        fill: #f07834;
      }

      .st6 {
        fill: #fbad18;
      }

      .st7 {
        fill: #fcb316;
      }

      .st8 {
        fill: #ffbf0f;
      }

      .st9 {
        fill: #faa81b;
      }

      .st10 {
        fill: #febe0f;
      }

      .st11 {
        fill: #f89e20;
      }

      .st12 {
        fill: #f28030;
      }

      .st13 {
        fill: #febc11;
      }

      .st14 {
        fill: #f69326;
      }

      .st15 {
        fill: #f9a41d;
      }

      .st16 {
        fill: #da2327;
      }

      .st17 {
        fill: #f3842e;
      }

      .st18 {
        fill: #f3852d;
      }

      .st19 {
        fill: #f59227;
      }

      .st20 {
        fill: #f58f28;
      }

      .st21 {
        fill: #fcb315;
      }

      .st22 {
        fill: #ee6f39;
      }

      .st23 {
        fill: #fdb514;
      }

      .st24 {
        fill: #f79a23;
      }

      .st25 {
        fill: #fbac19;
      }

      .st26 {
        fill: #f69624;
      }

      .st27 {
        fill: #f79923;
      }

      .st28 {
        fill: #fcb216;
      }

      .st29 {
        fill: #f89f20;
      }

      .st30 {
        fill: #f48a2b;
      }

      .st31 {
        fill: #f8a01f;
      }

      .st32 {
        fill: #fbae18;
      }

      .st33 {
        fill: #f17e31;
      }

      .st34 {
        fill: #ef7138;
      }

      .st35 {
        fill: #ee7038;
      }

      .st36 {
        fill: #f79b22;
      }

      .st37 {
        fill: #febb11;
      }

      .st38 {
        fill: #f9a21e;
      }

      .st39 {
        fill: #fdb912;
      }

      .st40 {
        fill: #f07735;
      }

      .st41 {
        fill: #f48d29;
      }

      .st42 {
        fill: #f69426;
      }

      .st43 {
        fill: #fbaf17;
      }

      .st44 {
        fill: #f17b33;
      }

      .st45 {
        fill: #f59027;
      }

      .st46 {
        fill: #f69525;
      }

      .st47 {
        clip-path: url(#clippath-1);
      }

      .st48 {
        clip-path: url(#clippath-2);
      }

      .st49 {
        fill: #fdb614;
      }

      .st50 {
        fill: #fff;
      }

      .st51 {
        fill: #ffc10e;
      }

      .st52 {
        fill: #fbab19;
      }

      .st53 {
        fill: #ffc00f;
      }

      .st54 {
        fill: #f79c21;
      }

      .st55 {
        fill: #fdba12;
      }

      .st56 {
        fill: #fdb713;
      }

      .st57 {
        fill: #f58e29;
      }

      .st58 {
        fill: #f9a51c;
      }

      .st59 {
        fill: #fcb415;
      }

      .st60 {
        fill: #f17f31;
      }

      .st61 {
        fill: #f2832f;
      }

      .st62 {
        fill: #f89d21;
      }

      .st63 {
        fill: #ee6d3a;
      }

      .st64 {
        fill: #f48c2a;
      }

      .st65 {
        fill: #f07a33;
      }

      .st66 {
        fill: #f9a11f;
      }

      .st67 {
        opacity: .6;
      }

      .st68 {
        opacity: .2;
      }

      .st69 {
        fill: #f9a31d;
      }

      .st70 {
        fill: #faa61c;
      }

      .st71 {
        fill: #ffc00e;
      }

      .st72 {
        fill: #ed693c;
      }

      .st73 {
        fill: #f69724;
      }

      .st74 {
        fill: #fdb813;
      }

      .st75 {
        fill: #ef7436;
      }

      .st76 {
        fill: #f4892b;
      }

      .st77 {
        fill: #ef7337;
      }

      .st78 {
        fill: #f17c32;
      }

      .st79 {
        fill: #faa71b;
      }

      .st80 {
        fill: #f2812f;
      }

      .st81 {
        fill: #fcb017;
      }

      .st82 {
        fill: #f3882c;
      }

      .st83 {
        clip-path: url(#clippath);
      }

      .st84 {
        fill: #febe10;
      }

      .st85 {
        fill: #ee6c3b;
      }

      .st86 {
        fill: #f07535;
      }

      .st87 {
        fill: #ed6a3b;
      }

      .st88 {
        fill: #faaa1a;
      }

      .st89 {
        fill: #f3872d;
      }
    </style>
    <clipPath id="clippath">
      <path class="st0" d="M29.33,3.77c-.11-1.65-.62-2.69-.64-2.73-.02-.04-.06-.07-.11-.07,0,0,0,0,0,0-.05,0-.09.02-.11.06-.01.02-1.05,1.71-3.74,3.42-1.96,1.24-2.73,1.6-5.97,3.09-.36.16-.74.34-1.16.54-2.19,1.01-4.61,2.33-5.96,4.45-1.36,2.13-1.5,4.84-.43,8.29.37,1.18.46,1.18.57,1.18.09,0,.15-.07.16-.17,0-.02,0-.04,0-.06-.02-.22-.08-2.93,5.47-5.41,7.08-3.17,8.71-4.33,10.03-6.23,1.75-2.5,2-4.84,1.9-6.36Z"/>
    </clipPath>
    <clipPath id="clippath-1">
      <path class="st0" d="M23.75,17.15c-1.48.97-5.7,3.47-7.72,4.72-2.01,1.25-2.64,4.52-2.16,6.78.37,1.74.71,2.31.71,2.31.08.08.7-1.32,3.87-3.33,3.6-2.28,4.47-2.15,6-4.22,2.49-3.34,2.03-6.58,1.53-8.31-.54.67-.77,1.09-2.25,2.06Z"/>
    </clipPath>
    <clipPath id="clippath-2">
      <path class="st0" d="M23.24,29.09s-.06-.04-.09-.04h0c-.08,0-.17.06-1.35.91-.66.48-1.58,1.14-2.52,1.79-1.9,1.31-2.55,2.12-2.77,3.45-.2,1.2.5,3.13.53,3.21.01.04.05.07.09.08.01,0,.03,0,.04,0,.03,0,.05,0,.08-.03,0,0,.98-.71,3.04-2.2,1.24-.9,2.12-2.27,2.62-4.08.38-1.42.4-2.66.39-3,0-.03-.01-.07-.04-.09Z"/>
    </clipPath>
  </defs>
  <g>
    <g>
      <path class="st16" d="M29.33,3.77c-.11-1.65-.62-2.69-.64-2.73-.02-.04-.06-.07-.11-.07,0,0,0,0,0,0-.05,0-.09.02-.11.06-.01.02-1.05,1.71-3.74,3.42-1.96,1.24-2.73,1.6-5.97,3.09-.36.16-.74.34-1.16.54-2.19,1.01-4.61,2.33-5.96,4.45-1.36,2.13-1.5,4.84-.43,8.29.37,1.18.46,1.18.57,1.18.09,0,.15-.07.16-.17,0-.02,0-.04,0-.06-.02-.22-.08-2.93,5.47-5.41,7.08-3.17,8.71-4.33,10.03-6.23,1.75-2.5,2-4.84,1.9-6.36Z"/>
      <path class="st16" d="M23.75,17.15c-1.48.97-5.7,3.47-7.72,4.72-2.01,1.25-2.64,4.52-2.16,6.78.37,1.74.71,2.31.71,2.31.08.08.7-1.32,3.87-3.33,3.6-2.28,4.47-2.15,6-4.22,2.49-3.34,2.03-6.58,1.53-8.31-.54.67-.77,1.09-2.25,2.06Z"/>
      <path class="st16" d="M23.24,29.09s-.06-.04-.09-.04h0c-.08,0-.17.06-1.35.91-.66.48-1.58,1.14-2.52,1.79-1.9,1.31-2.55,2.12-2.77,3.45-.2,1.2.5,3.13.53,3.21.01.04.05.07.09.08.01,0,.03,0,.04,0,.03,0,.05,0,.08-.03,0,0,.98-.71,3.04-2.2,1.24-.9,2.12-2.27,2.62-4.08.38-1.42.4-2.66.39-3,0-.03-.01-.07-.04-.09Z"/>
    </g>
    <g>
      <g class="st83">
        <path class="st51" d="M10.13,21.99h19.3H10.13Z"/>
        <rect class="st51" x="10.13" y="21.87" width="19.3" height=".12"/>
        <rect class="st51" x="10.13" y="21.75" width="19.3" height=".12"/>
        <rect class="st51" x="10.13" y="21.63" width="19.3" height=".12"/>
        <rect class="st71" x="10.13" y="21.5" width="19.3" height=".12"/>
        <rect class="st53" x="10.13" y="21.38" width="19.3" height=".12"/>
        <rect class="st8" x="10.13" y="21.26" width="19.3" height=".12"/>
        <rect class="st8" x="10.13" y="21.14" width="19.3" height=".12"/>
        <rect class="st10" x="10.13" y="21.02" width="19.3" height=".12"/>
        <rect class="st84" x="10.13" y="20.89" width="19.3" height=".12"/>
        <rect class="st4" x="10.13" y="20.77" width="19.3" height=".12"/>
        <rect class="st4" x="10.13" y="20.65" width="19.3" height=".12"/>
        <rect class="st13" x="10.13" y="20.53" width="19.3" height=".12"/>
        <rect class="st13" x="10.13" y="20.41" width="19.3" height=".12"/>
        <rect class="st37" x="10.13" y="20.28" width="19.3" height=".12"/>
        <rect class="st3" x="10.13" y="20.16" width="19.3" height=".12"/>
        <rect class="st55" x="10.13" y="20.04" width="19.3" height=".12"/>
        <rect class="st39" x="10.13" y="19.92" width="19.3" height=".12"/>
        <rect class="st74" x="10.13" y="19.8" width="19.3" height=".12"/>
        <rect class="st56" x="10.13" y="19.67" width="19.3" height=".12"/>
        <rect class="st56" x="10.13" y="19.55" width="19.3" height=".12"/>
        <rect class="st49" x="10.13" y="19.43" width="19.3" height=".12"/>
        <rect class="st23" x="10.13" y="19.31" width="19.3" height=".12"/>
        <rect class="st59" x="10.13" y="19.19" width="19.3" height=".12"/>
        <rect class="st21" x="10.13" y="19.06" width="19.3" height=".12"/>
        <rect class="st7" x="10.13" y="18.94" width="19.3" height=".12"/>
        <rect class="st28" x="10.13" y="18.82" width="19.3" height=".12"/>
        <rect class="st2" x="10.13" y="18.7" width="19.3" height=".12"/>
        <rect class="st81" x="10.13" y="18.58" width="19.3" height=".12"/>
        <rect class="st43" x="10.13" y="18.45" width="19.3" height=".12"/>
        <rect class="st32" x="10.13" y="18.33" width="19.3" height=".12"/>
        <rect class="st6" x="10.13" y="18.21" width="19.3" height=".12"/>
        <rect class="st25" x="10.13" y="18.09" width="19.3" height=".12"/>
        <rect class="st52" x="10.13" y="17.97" width="19.3" height=".12"/>
        <rect class="st88" x="10.13" y="17.84" width="19.3" height=".12"/>
        <rect class="st1" x="10.13" y="17.72" width="19.3" height=".12"/>
        <rect class="st9" x="10.13" y="17.6" width="19.3" height=".12"/>
        <rect class="st79" x="10.13" y="17.48" width="19.3" height=".12"/>
        <rect class="st70" x="10.13" y="17.36" width="19.3" height=".12"/>
        <rect class="st58" x="10.13" y="17.23" width="19.3" height=".12"/>
        <rect class="st15" x="10.13" y="17.11" width="19.3" height=".12"/>
        <rect class="st69" x="10.13" y="16.99" width="19.3" height=".12"/>
        <rect class="st38" x="10.13" y="16.87" width="19.3" height=".12"/>
        <rect class="st66" x="10.13" y="16.75" width="19.3" height=".12"/>
        <rect class="st31" x="10.13" y="16.62" width="19.3" height=".12"/>
        <rect class="st29" x="10.13" y="16.5" width="19.3" height=".12"/>
        <rect class="st11" x="10.13" y="16.38" width="19.3" height=".12"/>
        <rect class="st62" x="10.13" y="16.26" width="19.3" height=".12"/>
        <rect class="st54" x="10.13" y="16.14" width="19.3" height=".12"/>
        <rect class="st36" x="10.13" y="16.01" width="19.3" height=".12"/>
        <rect class="st24" x="10.13" y="15.89" width="19.3" height=".12"/>
        <rect class="st27" x="10.13" y="15.77" width="19.3" height=".12"/>
        <rect class="st73" x="10.13" y="15.65" width="19.3" height=".12"/>
        <rect class="st26" x="10.13" y="15.53" width="19.3" height=".12"/>
        <rect class="st46" x="10.13" y="15.4" width="19.3" height=".12"/>
        <rect class="st42" x="10.13" y="15.28" width="19.3" height=".12"/>
        <rect class="st14" x="10.13" y="15.16" width="19.3" height=".12"/>
        <rect class="st19" x="10.13" y="15.04" width="19.3" height=".12"/>
        <rect class="st45" x="10.13" y="14.92" width="19.3" height=".12"/>
        <rect class="st20" x="10.13" y="14.79" width="19.3" height=".12"/>
        <rect class="st57" x="10.13" y="14.67" width="19.3" height=".12"/>
        <rect class="st41" x="10.13" y="14.55" width="19.3" height=".12"/>
        <rect class="st64" x="10.13" y="14.43" width="19.3" height=".12"/>
        <rect class="st30" x="10.13" y="14.31" width="19.3" height=".12"/>
        <rect class="st76" x="10.13" y="14.18" width="19.3" height=".12"/>
        <rect class="st82" x="10.13" y="14.06" width="19.3" height=".12"/>
        <rect class="st89" x="10.13" y="13.94" width="19.3" height=".12"/>
        <rect class="st18" x="10.13" y="13.82" width="19.3" height=".12"/>
        <rect class="st17" x="10.13" y="13.7" width="19.3" height=".12"/>
        <rect class="st61" x="10.13" y="13.57" width="19.3" height=".12"/>
        <rect class="st80" x="10.13" y="13.45" width="19.3" height=".12"/>
        <rect class="st12" x="10.13" y="13.33" width="19.3" height=".12"/>
        <rect class="st60" x="10.13" y="13.21" width="19.3" height=".12"/>
        <rect class="st33" x="10.13" y="13.09" width="19.3" height=".12"/>
        <rect class="st78" x="10.13" y="12.96" width="19.3" height=".12"/>
        <rect class="st44" x="10.13" y="12.84" width="19.3" height=".12"/>
        <rect class="st65" x="10.13" y="12.72" width="19.3" height=".12"/>
        <rect class="st5" x="10.13" y="12.6" width="19.3" height=".12"/>
        <rect class="st40" x="10.13" y="12.48" width="19.3" height=".12"/>
        <rect class="st86" x="10.13" y="12.35" width="19.3" height=".12"/>
        <rect class="st75" x="10.13" y="12.23" width="19.3" height=".12"/>
        <rect class="st77" x="10.13" y="12.11" width="19.3" height=".12"/>
        <rect class="st34" x="10.13" y="11.99" width="19.3" height=".12"/>
        <rect class="st35" x="10.13" y="11.87" width="19.3" height=".12"/>
        <rect class="st22" x="10.13" y="11.74" width="19.3" height=".12"/>
        <rect class="st63" x="10.13" y="11.62" width="19.3" height=".12"/>
        <rect class="st85" x="10.13" y="11.5" width="19.3" height=".12"/>
        <rect class="st87" x="10.13" y="11.38" width="19.3" height=".12"/>
        <rect class="st72" x="10.13" y="11.26" width="19.3" height=".12"/>
        <rect class="st72" x="10.13" y=".96" width="19.3" height="10.29"/>
      </g>
      <g class="st47">
        <rect class="st51" x="13.4" y="30.95" width="13.55" height=".08"/>
        <rect class="st51" x="13.4" y="30.86" width="13.55" height=".09"/>
        <rect class="st51" x="13.4" y="30.77" width="13.55" height=".09"/>
        <rect class="st51" x="13.4" y="30.68" width="13.55" height=".09"/>
        <rect class="st71" x="13.4" y="30.59" width="13.55" height=".09"/>
        <rect class="st53" x="13.4" y="30.49" width="13.55" height=".09"/>
        <rect class="st8" x="13.4" y="30.4" width="13.55" height=".09"/>
        <rect class="st8" x="13.4" y="30.31" width="13.55" height=".09"/>
        <rect class="st10" x="13.4" y="30.22" width="13.55" height=".09"/>
        <rect class="st84" x="13.4" y="30.13" width="13.55" height=".09"/>
        <rect class="st4" x="13.4" y="30.03" width="13.55" height=".09"/>
        <rect class="st4" x="13.4" y="29.94" width="13.55" height=".09"/>
        <rect class="st13" x="13.4" y="29.85" width="13.55" height=".09"/>
        <rect class="st13" x="13.4" y="29.76" width="13.55" height=".09"/>
        <rect class="st37" x="13.4" y="29.67" width="13.55" height=".09"/>
        <rect class="st3" x="13.4" y="29.57" width="13.55" height=".09"/>
        <rect class="st55" x="13.4" y="29.48" width="13.55" height=".09"/>
        <rect class="st39" x="13.4" y="29.39" width="13.55" height=".09"/>
        <rect class="st74" x="13.4" y="29.3" width="13.55" height=".09"/>
        <rect class="st56" x="13.4" y="29.21" width="13.55" height=".09"/>
        <rect class="st56" x="13.4" y="29.11" width="13.55" height=".09"/>
        <rect class="st49" x="13.4" y="29.02" width="13.55" height=".09"/>
        <rect class="st23" x="13.4" y="28.93" width="13.55" height=".09"/>
        <rect class="st59" x="13.4" y="28.84" width="13.55" height=".09"/>
        <rect class="st21" x="13.4" y="28.75" width="13.55" height=".09"/>
        <rect class="st7" x="13.4" y="28.65" width="13.55" height=".09"/>
        <rect class="st28" x="13.4" y="28.56" width="13.55" height=".09"/>
        <rect class="st2" x="13.4" y="28.47" width="13.55" height=".09"/>
        <rect class="st81" x="13.4" y="28.38" width="13.55" height=".09"/>
        <rect class="st43" x="13.4" y="28.29" width="13.55" height=".09"/>
        <rect class="st32" x="13.4" y="28.19" width="13.55" height=".09"/>
        <rect class="st6" x="13.4" y="28.1" width="13.55" height=".09"/>
        <rect class="st25" x="13.4" y="28.01" width="13.55" height=".09"/>
        <rect class="st52" x="13.4" y="27.92" width="13.55" height=".09"/>
        <rect class="st88" x="13.4" y="27.83" width="13.55" height=".09"/>
        <rect class="st1" x="13.4" y="27.73" width="13.55" height=".09"/>
        <rect class="st9" x="13.4" y="27.64" width="13.55" height=".09"/>
        <rect class="st79" x="13.4" y="27.55" width="13.55" height=".09"/>
        <rect class="st70" x="13.4" y="27.46" width="13.55" height=".09"/>
        <rect class="st58" x="13.4" y="27.37" width="13.55" height=".09"/>
        <rect class="st15" x="13.4" y="27.27" width="13.55" height=".09"/>
        <rect class="st69" x="13.4" y="27.18" width="13.55" height=".09"/>
        <rect class="st38" x="13.4" y="27.09" width="13.55" height=".09"/>
        <rect class="st66" x="13.4" y="27" width="13.55" height=".09"/>
        <rect class="st31" x="13.4" y="26.91" width="13.55" height=".09"/>
        <rect class="st29" x="13.4" y="26.81" width="13.55" height=".09"/>
        <rect class="st11" x="13.4" y="26.72" width="13.55" height=".09"/>
        <rect class="st62" x="13.4" y="26.63" width="13.55" height=".09"/>
        <rect class="st54" x="13.4" y="26.54" width="13.55" height=".09"/>
        <rect class="st36" x="13.4" y="26.44" width="13.55" height=".09"/>
        <rect class="st24" x="13.4" y="26.35" width="13.55" height=".09"/>
        <rect class="st27" x="13.4" y="26.26" width="13.55" height=".09"/>
        <rect class="st73" x="13.4" y="26.17" width="13.55" height=".09"/>
        <rect class="st26" x="13.4" y="26.08" width="13.55" height=".09"/>
        <rect class="st46" x="13.4" y="25.98" width="13.55" height=".09"/>
        <rect class="st42" x="13.4" y="25.89" width="13.55" height=".09"/>
        <rect class="st14" x="13.4" y="25.8" width="13.55" height=".09"/>
        <rect class="st19" x="13.4" y="25.71" width="13.55" height=".09"/>
        <rect class="st45" x="13.4" y="25.62" width="13.55" height=".09"/>
        <rect class="st20" x="13.4" y="25.52" width="13.55" height=".09"/>
        <rect class="st57" x="13.4" y="25.43" width="13.55" height=".09"/>
        <rect class="st41" x="13.4" y="25.34" width="13.55" height=".09"/>
        <rect class="st64" x="13.4" y="25.25" width="13.55" height=".09"/>
        <rect class="st30" x="13.4" y="25.16" width="13.55" height=".09"/>
        <rect class="st76" x="13.4" y="25.06" width="13.55" height=".09"/>
        <rect class="st82" x="13.4" y="24.97" width="13.55" height=".09"/>
        <rect class="st89" x="13.4" y="24.88" width="13.55" height=".09"/>
        <rect class="st18" x="13.4" y="24.79" width="13.55" height=".09"/>
        <rect class="st17" x="13.4" y="24.7" width="13.55" height=".09"/>
        <rect class="st61" x="13.4" y="24.6" width="13.55" height=".09"/>
        <rect class="st80" x="13.4" y="24.51" width="13.55" height=".09"/>
        <rect class="st12" x="13.4" y="24.42" width="13.55" height=".09"/>
        <rect class="st60" x="13.4" y="24.33" width="13.55" height=".09"/>
        <rect class="st33" x="13.4" y="24.24" width="13.55" height=".09"/>
        <rect class="st78" x="13.4" y="24.14" width="13.55" height=".09"/>
        <rect class="st44" x="13.4" y="24.05" width="13.55" height=".09"/>
        <rect class="st65" x="13.4" y="23.96" width="13.55" height=".09"/>
        <rect class="st5" x="13.4" y="23.87" width="13.55" height=".09"/>
        <rect class="st40" x="13.4" y="23.78" width="13.55" height=".09"/>
        <rect class="st86" x="13.4" y="23.68" width="13.55" height=".09"/>
        <rect class="st75" x="13.4" y="23.59" width="13.55" height=".09"/>
        <rect class="st77" x="13.4" y="23.5" width="13.55" height=".09"/>
        <rect class="st34" x="13.4" y="23.41" width="13.55" height=".09"/>
        <rect class="st35" x="13.4" y="23.32" width="13.55" height=".09"/>
        <rect class="st22" x="13.4" y="23.22" width="13.55" height=".09"/>
        <rect class="st63" x="13.4" y="23.13" width="13.55" height=".09"/>
        <rect class="st85" x="13.4" y="23.04" width="13.55" height=".09"/>
        <rect class="st87" x="13.4" y="22.95" width="13.55" height=".09"/>
        <rect class="st72" x="13.4" y="22.86" width="13.55" height=".09"/>
        <rect class="st72" x="13.4" y="15.09" width="13.55" height="7.76"/>
      </g>
      <g class="st48">
        <path class="st51" d="M16.31,38.5h6.98-6.98Z"/>
        <rect class="st51" x="16.31" y="38.45" width="6.98" height=".05"/>
        <rect class="st51" x="16.31" y="38.39" width="6.98" height=".05"/>
        <rect class="st51" x="16.31" y="38.34" width="6.98" height=".05"/>
        <rect class="st71" x="16.31" y="38.28" width="6.98" height=".05"/>
        <rect class="st53" x="16.31" y="38.23" width="6.98" height=".05"/>
        <rect class="st8" x="16.31" y="38.17" width="6.98" height=".05"/>
        <rect class="st8" x="16.31" y="38.12" width="6.98" height=".05"/>
        <rect class="st10" x="16.31" y="38.06" width="6.98" height=".05"/>
        <rect class="st84" x="16.31" y="38.01" width="6.98" height=".05"/>
        <rect class="st4" x="16.31" y="37.95" width="6.98" height=".05"/>
        <rect class="st4" x="16.31" y="37.9" width="6.98" height=".05"/>
        <rect class="st13" x="16.31" y="37.84" width="6.98" height=".05"/>
        <rect class="st13" x="16.31" y="37.79" width="6.98" height=".05"/>
        <rect class="st37" x="16.31" y="37.74" width="6.98" height=".05"/>
        <rect class="st3" x="16.31" y="37.68" width="6.98" height=".05"/>
        <rect class="st55" x="16.31" y="37.63" width="6.98" height=".05"/>
        <rect class="st39" x="16.31" y="37.57" width="6.98" height=".05"/>
        <rect class="st74" x="16.31" y="37.52" width="6.98" height=".05"/>
        <rect class="st56" x="16.31" y="37.46" width="6.98" height=".05"/>
        <rect class="st56" x="16.31" y="37.41" width="6.98" height=".05"/>
        <rect class="st49" x="16.31" y="37.35" width="6.98" height=".05"/>
        <rect class="st23" x="16.31" y="37.3" width="6.98" height=".05"/>
        <rect class="st59" x="16.31" y="37.24" width="6.98" height=".05"/>
        <rect class="st21" x="16.31" y="37.19" width="6.98" height=".05"/>
        <rect class="st7" x="16.31" y="37.13" width="6.98" height=".05"/>
        <rect class="st28" x="16.31" y="37.08" width="6.98" height=".05"/>
        <rect class="st2" x="16.31" y="37.02" width="6.98" height=".05"/>
        <rect class="st81" x="16.31" y="36.97" width="6.98" height=".05"/>
        <rect class="st43" x="16.31" y="36.91" width="6.98" height=".05"/>
        <rect class="st32" x="16.31" y="36.86" width="6.98" height=".05"/>
        <rect class="st6" x="16.31" y="36.8" width="6.98" height=".05"/>
        <rect class="st25" x="16.31" y="36.75" width="6.98" height=".05"/>
        <rect class="st52" x="16.31" y="36.69" width="6.98" height=".05"/>
        <rect class="st88" x="16.31" y="36.64" width="6.98" height=".05"/>
        <rect class="st1" x="16.31" y="36.58" width="6.98" height=".05"/>
        <rect class="st9" x="16.31" y="36.53" width="6.98" height=".05"/>
        <rect class="st79" x="16.31" y="36.47" width="6.98" height=".05"/>
        <rect class="st70" x="16.31" y="36.42" width="6.98" height=".05"/>
        <rect class="st58" x="16.31" y="36.36" width="6.98" height=".05"/>
        <rect class="st15" x="16.31" y="36.31" width="6.98" height=".05"/>
        <rect class="st69" x="16.31" y="36.26" width="6.98" height=".05"/>
        <rect class="st38" x="16.31" y="36.2" width="6.98" height=".05"/>
        <rect class="st66" x="16.31" y="36.15" width="6.98" height=".05"/>
        <rect class="st31" x="16.31" y="36.09" width="6.98" height=".05"/>
        <rect class="st29" x="16.31" y="36.04" width="6.98" height=".05"/>
        <rect class="st11" x="16.31" y="35.98" width="6.98" height=".05"/>
        <rect class="st62" x="16.31" y="35.93" width="6.98" height=".05"/>
        <rect class="st54" x="16.31" y="35.87" width="6.98" height=".05"/>
        <rect class="st36" x="16.31" y="35.82" width="6.98" height=".05"/>
        <rect class="st24" x="16.31" y="35.76" width="6.98" height=".05"/>
        <rect class="st27" x="16.31" y="35.71" width="6.98" height=".05"/>
        <rect class="st73" x="16.31" y="35.65" width="6.98" height=".05"/>
        <rect class="st26" x="16.31" y="35.6" width="6.98" height=".05"/>
        <rect class="st46" x="16.31" y="35.54" width="6.98" height=".05"/>
        <rect class="st42" x="16.31" y="35.49" width="6.98" height=".05"/>
        <rect class="st14" x="16.31" y="35.43" width="6.98" height=".05"/>
        <rect class="st19" x="16.31" y="35.38" width="6.98" height=".05"/>
        <rect class="st45" x="16.31" y="35.32" width="6.98" height=".05"/>
        <rect class="st20" x="16.31" y="35.27" width="6.98" height=".05"/>
        <rect class="st57" x="16.31" y="35.21" width="6.98" height=".05"/>
        <rect class="st41" x="16.31" y="35.16" width="6.98" height=".05"/>
        <rect class="st64" x="16.31" y="35.1" width="6.98" height=".05"/>
        <rect class="st30" x="16.31" y="35.05" width="6.98" height=".05"/>
        <rect class="st76" x="16.31" y="34.99" width="6.98" height=".05"/>
        <rect class="st82" x="16.31" y="34.94" width="6.98" height=".05"/>
        <rect class="st89" x="16.31" y="34.88" width="6.98" height=".05"/>
        <rect class="st18" x="16.31" y="34.83" width="6.98" height=".05"/>
        <rect class="st17" x="16.31" y="34.78" width="6.98" height=".05"/>
        <rect class="st61" x="16.31" y="34.72" width="6.98" height=".05"/>
        <rect class="st80" x="16.31" y="34.67" width="6.98" height=".05"/>
        <rect class="st12" x="16.31" y="34.61" width="6.98" height=".05"/>
        <rect class="st60" x="16.31" y="34.56" width="6.98" height=".05"/>
        <rect class="st33" x="16.31" y="34.5" width="6.98" height=".05"/>
        <rect class="st78" x="16.31" y="34.45" width="6.98" height=".05"/>
        <rect class="st44" x="16.31" y="34.39" width="6.98" height=".05"/>
        <rect class="st65" x="16.31" y="34.34" width="6.98" height=".05"/>
        <rect class="st5" x="16.31" y="34.28" width="6.98" height=".05"/>
        <rect class="st40" x="16.31" y="34.23" width="6.98" height=".05"/>
        <rect class="st86" x="16.31" y="34.17" width="6.98" height=".05"/>
        <rect class="st75" x="16.31" y="34.12" width="6.98" height=".05"/>
        <rect class="st77" x="16.31" y="34.06" width="6.98" height=".05"/>
        <rect class="st34" x="16.31" y="34.01" width="6.98" height=".05"/>
        <rect class="st35" x="16.31" y="33.95" width="6.98" height=".05"/>
        <rect class="st22" x="16.31" y="33.9" width="6.98" height=".05"/>
        <rect class="st63" x="16.31" y="33.84" width="6.98" height=".05"/>
        <rect class="st85" x="16.31" y="33.79" width="6.98" height=".05"/>
        <rect class="st87" x="16.31" y="33.73" width="6.98" height=".05"/>
        <rect class="st72" x="16.31" y="33.68" width="6.98" height=".05"/>
        <rect class="st72" x="16.31" y="29.06" width="6.98" height="4.62"/>
      </g>
    </g>
    <g class="st68">
      <path class="st50" d="M25.93,15.17c-.49.63-.77,1.05-2.18,1.98-1.48.97-5.7,3.47-7.72,4.72-1.99,1.23-2.62,4.44-2.17,6.7.37-.48,1.34-1.68,3.82-3.26,1.25-.79,2.18-1.3,2.93-1.71,1.51-.83,2.27-1.25,3.35-2.7,1.81-2.43,2.16-4.13,1.97-5.72Z"/>
      <path class="st50" d="M19.28,31.76c-1.9,1.31-2.55,2.12-2.77,3.45-.08.48-.02,1.08.09,1.63.39-.29,1.49-1.08,3.36-2.44,1.45-1.04,2.47-2.64,3.04-4.74.06-.21.1-.41.15-.6-.08,0-.19.07-1.34.91-.66.48-1.58,1.14-2.52,1.79Z"/>
      <path class="st50" d="M16.22,13.3c7.37-3.3,9.08-4.52,10.46-6.49,1.53-2.19,1.96-4.25,2-5.79-.02-.03-.06-.06-.1-.06,0,0,0,0,0,0-.05,0-.09.02-.11.06-.01.02-1.05,1.71-3.74,3.42-1.96,1.24-2.73,1.6-5.97,3.09-.36.16-.74.34-1.16.54-2.19,1.01-4.61,2.33-5.96,4.45-1,1.57-1.34,3.45-1.02,5.72.28-1.04,1.39-3.05,5.61-4.94Z"/>
    </g>
    <g class="st67">
      <path class="st50" d="M16.03,22.13c2.01-1.25,6.24-3.75,7.72-4.72,1.42-.93,1.69-1.35,2.18-1.98.02.2.04.4.04.61,0-.3,0-.58-.04-.87-.49.63-.77,1.05-2.18,1.98-1.48.97-5.7,3.47-7.72,4.72-1.62,1.01-2.34,3.32-2.31,5.36.03-1.97.76-4.14,2.31-5.1Z"/>
      <path class="st50" d="M16.5,35.47c.22-1.33.87-2.14,2.77-3.45.95-.65,1.86-1.31,2.52-1.79.92-.66,1.17-.84,1.28-.89.02-.09.04-.19.06-.28-.08,0-.19.07-1.34.91-.66.48-1.58,1.14-2.52,1.79-1.9,1.31-2.55,2.12-2.77,3.45-.03.19-.04.4-.03.61,0-.12.01-.24.03-.35Z"/>
      <path class="st50" d="M11.63,12.79c1.36-2.12,3.77-3.44,5.96-4.45.42-.19.81-.37,1.16-.54,3.24-1.5,4.01-1.85,5.97-3.09,2.69-1.7,3.73-3.4,3.74-3.42.02-.04.07-.06.11-.06,0,0,0,0,0,0,.04,0,.07.02.09.05,0-.08,0-.17.01-.25-.02-.03-.06-.06-.1-.06,0,0,0,0,0,0-.05,0-.09.02-.11.06-.01.02-1.05,1.71-3.74,3.42-1.96,1.24-2.73,1.6-5.97,3.09-.36.16-.74.34-1.16.54-2.19,1.01-4.61,2.33-5.96,4.45-.78,1.22-1.15,2.62-1.13,4.25.02-1.51.4-2.84,1.13-3.99Z"/>
    </g>
  </g>
  <g>
    <path class="st50" d="M42.5,19.85h6.2l-.54,1.4h-6.2l-2.59,6.72h-1.53l5.66-14.67h8.77l-.54,1.4h-7.24l-1.99,5.15Z"/>
    <path class="st50" d="M58.67,21.38l.91,6.59h-1.74l-.79-6.44h-3.48l-2.5,6.44h-1.53l5.66-14.67h5.32c1.14,0,1.99.28,2.54.83s.74,1.34.56,2.36c-.22,1.23-.77,2.29-1.66,3.17-.89.88-1.99,1.45-3.31,1.72ZM62.01,16.76c.12-.68,0-1.19-.36-1.54-.36-.35-.93-.52-1.73-.52h-3.73l-2.12,5.49h3.62c1.09,0,2.03-.3,2.83-.91.8-.61,1.29-1.45,1.48-2.51Z"/>
    <path class="st50" d="M67.2,19.81h6.2l-.54,1.4h-6.2l-2.07,5.36h7.26l-.56,1.4h-8.77l5.66-14.67h8.77l-.54,1.4h-7.24l-1.97,5.1Z"/>
    <path class="st50" d="M85.14,13.3c1.26,0,2.19.3,2.81.9.62.6.81,1.56.59,2.86-.1.57-.28,1.18-.53,1.83l-1.35,3.49c-.75,1.94-1.74,3.36-2.99,4.25-1.25.89-2.63,1.34-4.15,1.34h-4.94l5.66-14.67h4.9ZM85.09,22.46l1.35-3.51c.27-.71.43-1.27.5-1.68.16-.89.04-1.55-.34-1.96-.39-.41-1.02-.62-1.9-.62h-3.48l-4.56,11.87h3.39c2.3,0,3.98-1.37,5.04-4.1Z"/>
    <path class="st50" d="M106.48,27.97h-2.74l1.53-8.7-3.78,5.87h-1.84l-1.74-5.93-1.54,8.76h-2.74l2.59-14.67h2.74l2.28,8.1,5.09-8.1h2.74l-2.59,14.67Z"/>
    <path class="st50" d="M112.5,25.12l-1.38,2.85h-2.89l7.72-14.67h2.24l2.56,14.67h-2.91l-.38-2.85h-4.96ZM116.37,17.17l-2.73,5.64h3.5l-.76-5.64Z"/>
    <path class="st50" d="M130.16,13.3c1.6,0,2.79.45,3.56,1.36.77.91.97,2.4.6,4.47l-.53,3c-.37,2.07-1.1,3.56-2.21,4.48-1.11.92-2.47,1.37-4.09,1.37h-5l2.59-14.67h5.09ZM129.98,24.72c.51-.55.87-1.42,1.08-2.62l.5-2.83c.22-1.25.18-2.15-.13-2.71-.31-.56-.88-.84-1.72-.84h-2.32l-1.73,9.82h2.32c.82,0,1.49-.28,2-.83Z"/>
    <path class="st50" d="M139.05,22.02l-1.05,5.95h-2.74l2.59-14.67h5.48c1.41,0,2.46.39,3.16,1.18.7.79.93,1.85.69,3.2-.17.96-.53,1.78-1.09,2.45-.56.67-1.27,1.16-2.15,1.47l2.02,6.38h-3.16l-1.69-5.95h-2.05ZM142.06,19.7c.64,0,1.17-.17,1.59-.52.42-.35.68-.85.8-1.5.1-.6,0-1.07-.29-1.42-.3-.35-.76-.53-1.39-.53h-2.6l-.7,3.98h2.6Z"/>
    <path class="st50" d="M153.49,13.3l-2.59,14.67h-2.74l2.59-14.67h2.74Z"/>
    <path class="st50" d="M161.59,13.3c1.6,0,2.79.45,3.56,1.36.77.91.97,2.4.6,4.47l-.53,3c-.37,2.07-1.1,3.56-2.21,4.48-1.11.92-2.47,1.37-4.09,1.37h-5l2.59-14.67h5.09ZM161.41,24.72c.51-.55.87-1.42,1.08-2.62l.5-2.83c.22-1.25.18-2.15-.13-2.71-.31-.56-.88-.84-1.72-.84h-2.32l-1.73,9.82h2.32c.82,0,1.49-.28,2-.83Z"/>
  </g>
</svg>